HIERARCHY
ROOT pelvis
{
  OFFSET 0 100 0
  CHANNELS 6 Xposition Yposition Zposition Zrotation Xrotation Yrotation
  JOINT pelvis_right_femur
  {
    OFFSET -10.78128 -3.44521 -0.5502486
    CHANNELS 3 Zrotation Xrotation Yrotation
    JOINT right_femur_tibia
    {
      OFFSET -0.8047443 -44.0398 -0.1307829
      CHANNELS 3 Zrotation Xrotation Yrotation
      JOINT right_tibia_foot
      {
        OFFSET 3.006224 -47.83518 -5
        CHANNELS 3 Zrotation Xrotation Yrotation
        End Site
        {
          OFFSET 0 -5 15
        }
      }
    }
  }
  JOINT pelvis_left_femur
  {
    OFFSET 10.78128 -3.44521 -0.5502486
    CHANNELS 3 Zrotation Xrotation Yrotation
    JOINT left_femur_tibia
    {
      OFFSET 0.8047443 -44.0398 -0.1307829
      CHANNELS 3 Zrotation Xrotation Yrotation
      JOINT left_tibia_foot
      {
        OFFSET -4.370144 -48.10324 -4.275266
        CHANNELS 3 Zrotation Xrotation Yrotation
        End Site
        {
          OFFSET 0 -5 15
        }
      }
    }
  }
  JOINT pelvis_spine1
  {
    OFFSET 0 6.468898 -3.129235
    CHANNELS 3 Zrotation Xrotation Yrotation
    JOINT spine1
    {
      OFFSET 0 23.15396 4.99043
      CHANNELS 3 Zrotation Xrotation Yrotation
      JOINT spine2
      {
        OFFSET 0 20.79997 -5.064912
        CHANNELS 3 Zrotation Xrotation Yrotation
        JOINT neck
        {
          OFFSET 0 14.38658 9.616178
          CHANNELS 3 Zrotation Xrotation Yrotation
          End Site
          {
            OFFSET 0 20 0
          }
        }
      }
      JOINT right_manubrium
      {
        OFFSET -5.722621 16.35077 3.967754
        CHANNELS 3 Zrotation Xrotation Yrotation
        JOINT right_clavicle
        {
          OFFSET -13.16364 1.694482 -4.693211
          CHANNELS 3 Zrotation Xrotation Yrotation
          JOINT right_humerus
          {
            OFFSET -28.5034 -0.3100689 -2.792744
            CHANNELS 3 Zrotation Xrotation Yrotation
            JOINT right_radius
            {
              OFFSET -25.15693 0.02248979 -1.271978
              CHANNELS 3 Zrotation Xrotation Yrotation
              End Site
              {
                OFFSET -15 0 0
              }
            }
          }
        }
      }
      JOINT left_manubrium
      {
        OFFSET 5.722621 16.35077 3.967754
        CHANNELS 3 Zrotation Xrotation Yrotation
        JOINT left_clavicle
        {
          OFFSET 13.16364 1.694482 -4.693211
          CHANNELS 3 Zrotation Xrotation Yrotation
          JOINT left_humerus
          {
            OFFSET 29.39168 -1.063119 -2.237045
            CHANNELS 3 Zrotation Xrotation Yrotation
            JOINT left_radius
            {
              OFFSET 24.59957 -0.9528479 0.9047498
              CHANNELS 3 Zrotation Xrotation Yrotation
              End Site
              {
                OFFSET 15 -0 -0
              }
            }
          }
        }
      }
    }
  }
}
MOTION
Frames: 9
Frame Time: 0.0416666666667
-1594.637 127.9083 1621.017 -6.807538 0.8534813 -111.6817 -0.7448822 -7.588944 -6.490337 -0 28.18389 -0 -14.85038 -3.755552 3.967776 -4.113123 -0.9402579 -9.709163 -0 4.135759 -0 5.129328 -9.096094 15.40423 -2.519489 -1.607289 5.262695 -0.5108347 12.59663 -5.186657 -0.4578885 21.97268 7.587107 6.30676 -15.22286 4.505391 4.625331 -21.54271 12.70252 85.20108 32.2208 -12.20073 -0 0 16.75907 -23.70406 12.33286 9.452021 8.096881 -26.12704 -7.04 -86.56016 3.372527 17.7584 0 0 -15.22132 23.37184 12.18885 -17.68562
-1599.465 127.4674 1620.302 -6.12945 0.1944832 -111.5266 -1.138638 -11.03338 -6.922999 -0 27.26793 -0 -14.80999 -4.308643 4.048215 -4.833267 0.569851 -9.74125 -0 3.725429 -0 6.449415 -10.25186 15.5141 -3.080531 -1.524355 5.288888 -0.3046136 12.29842 -5.586126 -0.7731083 21.75978 7.899006 6.730865 -15.07689 4.236969 5.367116 -20.67158 12.68996 84.84819 34.37663 -12.8338 -0 0 16.17737 -22.65519 11.74998 8.266895 8.930086 -26.8466 -6.61478 -85.79625 1.459517 15.58665 0 0 -16.7472 25.51449 10.76384 -20.64529
-1604.132 126.929 1619.622 -5.357489 -0.4363703 -111.3554 -1.341098 -14.21095 -7.212004 -0 25.93634 -0 -14.51778 -4.85501 4.053902 -5.501041 1.941454 -9.734338 -0 3.582277 -0 7.50862 -11.46321 15.68413 -3.567962 -1.49889 5.363066 -0.0887678 11.9579 -5.986825 -1.044278 21.47524 8.150944 7.095982 -15.04178 3.992539 5.989647 -19.86795 12.61448 84.52814 36.2279 -13.45536 -0 0 15.82519 -21.51278 11.08612 7.080571 9.786317 -27.44045 -6.058346 -85.33071 -0.2074723 13.70262 0 0 -18.04806 27.18981 9.397236 -23.09307
-1608.706 126.3124 1618.942 -4.549142 -0.9831348 -111.169 -1.316917 -17.05696 -7.39809 -0 24.16716 -0 -14.01396 -5.085974 4.030752 -6.093513 3.24154 -9.668649 -0 3.879455 -0 8.135401 -12.74619 15.82056 -3.921548 -1.523049 5.447298 0.1222819 11.61169 -6.37388 -1.252746 21.15244 8.340854 7.383164 -15.17646 3.795912 6.388293 -19.17206 12.48616 84.37543 37.4904 -14.16846 -0 0 15.60732 -20.40987 10.34484 5.997748 10.59691 -27.90176 -5.458512 -85.13327 -1.368618 12.19202 0 0 -19.19155 28.22477 8.312136 -24.75864
-1613.277 125.642 1618.213 -3.768919 -1.398481 -110.9658 -1.068493 -19.54433 -7.570185 -0 21.89945 -0 -13.40039 -4.7252 4.027029 -6.578231 4.533742 -9.486774 -0 4.771167 -0 8.206736 -14.07871 15.77845 -4.093857 -1.581021 5.498638 0.3197258 11.3104 -6.747094 -1.398555 20.82521 8.473759 7.587973 -15.5079 3.645505 6.482521 -18.61707 12.32936 84.52013 37.96172 -15.08984 -0 0 15.39835 -19.50423 9.563719 5.120179 11.28346 -28.27113 -4.936872 -85.11819 -1.864694 11.09991 0 0 -20.30553 28.52806 7.678353 -25.47238
-1617.951 124.9445 1617.374 -3.094504 -1.653706 -110.7454 -0.6409952 -21.65044 -7.844008 -0 19.09304 -0 -12.82021 -3.597441 4.077542 -6.928699 5.859648 -9.112023 -0 6.412659 -0 7.683431 -15.3819 15.41365 -4.065283 -1.651118 5.478602 0.4953982 11.10445 -7.111462 -1.497475 20.5298 8.559334 7.724748 -16.00558 3.513558 6.234377 -18.20819 12.17112 85.04335 37.57452 -16.29089 -0 0 15.06806 -18.9441 8.798061 4.51206 11.77963 -28.6189 -4.620879 -85.18122 -1.697483 10.39883 0 0 -21.51575 28.11688 7.545823 -25.22797
-1622.839 124.2532 1616.362 -2.629068 -1.732899 -110.5144 -0.09520504 -23.29011 -8.305381 -0 15.80914 -0 -12.41844 -1.669633 4.188367 -7.130274 7.215192 -8.478777 -0 9.018752 -0 6.623662 -16.50189 14.6556 -3.841368 -1.714174 5.362941 0.6368787 11.03953 -7.464629 -1.567326 20.30904 8.601379 7.815087 -16.58414 3.360658 5.643119 -17.92458 12.03178 85.95722 36.36985 -17.7576 -0 0 14.51345 -18.83639 8.101214 4.184186 12.03489 -29.00881 -4.621223 -85.24241 -1.005173 10.0037 0 0 -22.86558 27.10144 7.846293 -24.17062
-1628.039 123.6237 1615.114 -2.510149 -1.612077 -110.2965 0.5437003 -24.24325 -8.927486 -0 12.2972 -0 -12.30245 0.925506 4.319403 -7.167006 8.513708 -7.567812 -0 12.92438 -0 5.187397 -17.19418 13.57984 -3.43359 -1.764432 5.151228 0.7261889 11.16588 -7.787817 -1.608332 20.21535 8.582264 7.863334 -17.13542 3.16201 4.725305 -17.74771 11.92391 87.21764 34.42171 -19.38584 -0 0 13.68815 -19.22161 7.522968 4.103749 11.99617 -29.45967 -5.020646 -85.27518 0.03356526 9.838931 0 0 -24.24863 25.64475 8.458796 -22.51794
-1633.605 123.1548 1613.578 -2.892915 -1.237823 -110.1417 1.336994 -24.11444 -9.475984 -0 9.075043 -0 -12.50268 3.830696 4.356742 -6.990279 9.512118 -6.446674 -0 18.56626 -0 3.648626 -17.12232 12.46473 -2.839947 -1.818037 4.883682 0.743794 11.55023 -8.042354 -1.583447 20.30395 8.446962 7.826546 -17.57516 2.939552 3.508006 -17.70475 11.85807 88.7368 31.79282 -20.98336 -0 0 12.64429 -20.0391 7.138956 4.219129 11.58839 -29.91289 -5.851241 -85.32659 1.309306 9.934217 0 0 -25.36217 23.92546 9.283817 -20.46092
